<?xml version="1.0" encoding="utf-8"?>
<!-- Generator: Adobe Illustrator 27.7.0, SVG Export Plug-In . SVG Version: 6.00 Build 0)  -->
<svg version="1.1"
	 id="svg5" xmlns:svg="http://www.w3.org/2000/svg" xmlns:inkscape="http://www.inkscape.org/namespaces/inkscape" xmlns:sodipodi="http://sodipodi.sourceforge.net/DTD/sodipodi-0.dtd" inkscape:export-filename="/home/simon/Documents/Neotoma/Current_Workshop/images/sitecollunitdataset.png" inkscape:export-xdpi="600" inkscape:export-ydpi="600" inkscape:version="1.1.2 (0a00cf5339, 2022-02-04)" sodipodi:docname="site_collunit_dataset.svg"
	 xmlns="http://www.w3.org/2000/svg" xmlns:xlink="http://www.w3.org/1999/xlink" x="0px" y="0px" viewBox="0 0 351.6 462.9"
	 style="enable-background:new 0 0 351.6 462.9;" xml:space="preserve">
<style type="text/css">
	
		.st0{opacity:0.8;fill:url(#rect1227-3_00000137839899264667012980000011722355445102619029_);stroke:#000000;stroke-width:0.8504;stroke-linejoin:bevel;stroke-miterlimit:11.3386;stroke-dasharray:3.4016,0.8504;enable-background:new    ;}
	
		.st1{opacity:0.8;fill:url(#rect1227-3-2_00000077301368202560676070000017890018438796125575_);stroke:#000000;stroke-width:0.8504;stroke-linejoin:bevel;stroke-miterlimit:11.3386;stroke-dasharray:3.4016,0.8504;enable-background:new    ;}
	
		.st2{opacity:0.8;fill:#DDB600;stroke:#000000;stroke-width:1.6583;stroke-linejoin:bevel;stroke-miterlimit:11.3386;enable-background:new    ;}
	.st3{fill:#4F8ADC;stroke:#000000;stroke-width:0.2544;stroke-miterlimit:11.3386;}
	
		.st4{opacity:0.8;fill:url(#rect1227_00000070110692758071807640000004020656987477017493_);stroke:#000000;stroke-width:0.8593;stroke-linejoin:bevel;stroke-miterlimit:11.3386;enable-background:new    ;}
	
		.st5{opacity:0.8;fill:url(#rect1227-6_00000119819062206689724710000010586906753632142002_);stroke:#000000;stroke-width:1.0429;stroke-linejoin:bevel;stroke-miterlimit:11.3386;enable-background:new    ;}
	
		.st6{fill:#A4B266;fill-opacity:0;stroke:#CC2727;stroke-width:0.8504;stroke-linejoin:bevel;stroke-miterlimit:11.3386;stroke-dasharray:3.4016,0.8504;}
	.st7{fill-rule:evenodd;clip-rule:evenodd;}
	.st8{fill:#DD0000;stroke:#000000;stroke-width:1.6583;stroke-linejoin:bevel;stroke-miterlimit:11.3386;}
	.st9{fill:none;stroke:#000000;stroke-width:0.75;stroke-miterlimit:11.3386;}
	.st10{font-family:'Arial-BoldMT';}
	.st11{font-size:20px;}
	.st12{fill:none;stroke:#000000;stroke-width:1.0346;stroke-miterlimit:11.3386;}
	.st13{fill:none;stroke:#DE0000;stroke-width:0.75;stroke-miterlimit:11.3386;}
	.st14{fill:none;stroke:#CC2727;stroke-width:0.75;stroke-miterlimit:11.3386;}
	.st15{font-family:'Arial-ItalicMT';}
	.st16{font-size:16px;}
	
		.st17{opacity:0.8;fill:url(#rect1227-6-2_00000003818481431634255610000001619924171850884229_);stroke:#000000;stroke-width:0.8504;stroke-linejoin:bevel;stroke-miterlimit:11.3386;stroke-dasharray:3.4016,0.8504;enable-background:new    ;}
	.st18{font-size:14px;}
	.st19{fill:none;stroke:#231F20;stroke-width:0.8504;stroke-linejoin:bevel;stroke-miterlimit:11.3386;}
	.st20{fill:none;stroke:#231F20;stroke-width:0.5;stroke-miterlimit:10;}
	.st21{font-size:14.0006px;}
	.st22{fill:#231F20;}
	.st23{fill:#FFFFFF;fill-opacity:0.9758;stroke:#000000;stroke-width:0.8504;stroke-linejoin:bevel;stroke-miterlimit:11.3386;}
</style>
<sodipodi:namedview  bordercolor="#666666" borderopacity="1.0" fit-margin-bottom="0" fit-margin-left="0" fit-margin-right="0" fit-margin-top="0" id="namedview7" inkscape:current-layer="g21339" inkscape:cx="281.83457" inkscape:cy="310.24841" inkscape:document-units="mm" inkscape:pagecheckerboard="0" inkscape:pageopacity="0.0" inkscape:pageshadow="2" inkscape:window-height="1019" inkscape:window-maximized="1" inkscape:window-width="1920" inkscape:window-x="0" inkscape:window-y="0" inkscape:zoom="1.3021823" pagecolor="#ffffff" showgrid="false">
	</sodipodi:namedview>
<defs>
	
		<inkscape:path-effect  apply_no_weight="true" apply_with_weight="true" effect="bspline" helper_size="0" id="path-effect18321" is_visible="true" lpeversion="1" only_selected="false" steps="2" weight="33.333333">
		</inkscape:path-effect>
	
		<inkscape:path-effect  apply_no_weight="true" apply_with_weight="true" effect="bspline" helper_size="0" id="path-effect18164" is_visible="true" lpeversion="1" only_selected="false" steps="2" weight="33.333333">
		</inkscape:path-effect>
	
		<inkscape:path-effect  apply_no_weight="true" apply_with_weight="true" effect="bspline" helper_size="0" id="path-effect13455" is_visible="true" lpeversion="1" only_selected="false" steps="2" weight="33.333333">
		</inkscape:path-effect>
	
		<inkscape:path-effect  apply_no_weight="true" apply_with_weight="true" effect="bspline" helper_size="0" id="path-effect10544" is_visible="true" lpeversion="1" only_selected="false" steps="2" weight="33.333333">
		</inkscape:path-effect>
	
		<inkscape:path-effect  apply_no_weight="true" apply_with_weight="true" effect="bspline" helper_size="0" id="path-effect10175" is_visible="true" lpeversion="1" only_selected="false" steps="2" weight="33.333333">
		</inkscape:path-effect>
	
		<inkscape:path-effect  apply_no_weight="true" apply_with_weight="true" effect="bspline" helper_size="0" id="path-effect9676" is_visible="true" lpeversion="1" only_selected="false" steps="2" weight="33.333333">
		</inkscape:path-effect>
	
		<inkscape:path-effect  apply_no_weight="true" apply_with_weight="true" effect="bspline" helper_size="0" id="path-effect5602" is_visible="true" lpeversion="1" only_selected="false" steps="2" weight="33.333333">
		</inkscape:path-effect>
	
		<inkscape:path-effect  apply_no_weight="true" apply_with_weight="true" effect="bspline" helper_size="0" id="path-effect3409" is_visible="true" lpeversion="1" only_selected="false" steps="2" weight="33.333333">
		</inkscape:path-effect>
	
		<inkscape:path-effect  apply_no_weight="true" apply_with_weight="true" effect="bspline" helper_size="0" id="path-effect3405" is_visible="true" lpeversion="1" only_selected="false" steps="2" weight="33.333333">
		</inkscape:path-effect>
	
		<inkscape:path-effect  apply_no_weight="true" apply_with_weight="true" effect="bspline" helper_size="0" id="path-effect1405" is_visible="true" lpeversion="1" only_selected="false" steps="2" weight="33.333333">
		</inkscape:path-effect>
	
		<inkscape:path-effect  apply_no_weight="true" apply_with_weight="true" effect="bspline" helper_size="0" id="path-effect9676-2" is_visible="true" lpeversion="1" only_selected="false" steps="2" weight="33.333333">
		</inkscape:path-effect>
</defs>
<radialGradient id="rect1227-3_00000096028152604747421640000013078513272996364187_" cx="-99.3468" cy="122.6093" r="6.1648" gradientTransform="matrix(2.8336 -7.557655e-02 0.4026 15.0938 314.6965 -1483.7483)" gradientUnits="userSpaceOnUse">
	<stop  offset="0" style="stop-color:#A4B266"/>
	<stop  offset="1" style="stop-color:#A4B266;stop-opacity:0"/>
</radialGradient>
<rect id="rect1227-3" x="65.5" y="328" style="opacity:0.8;fill:url(#rect1227-3_00000096028152604747421640000013078513272996364187_);stroke:#000000;stroke-width:0.8504;stroke-linejoin:bevel;stroke-miterlimit:11.3386;stroke-dasharray:3.4016,0.8504;enable-background:new    ;" width="34.1" height="92.8"/>
<radialGradient id="rect1227-3-2_00000106841569844325712800000017129944532774715024_" cx="-99.3566" cy="122.6092" r="6.1725" gradientTransform="matrix(2.8336 -7.557655e-02 0.4026 15.0938 362.4244 -1483.7483)" gradientUnits="userSpaceOnUse">
	<stop  offset="0" style="stop-color:#A4B266"/>
	<stop  offset="1" style="stop-color:#A4B266;stop-opacity:0"/>
</radialGradient>
<rect id="rect1227-3-2" x="113.2" y="328" style="opacity:0.8;fill:url(#rect1227-3-2_00000106841569844325712800000017129944532774715024_);stroke:#000000;stroke-width:0.8504;stroke-linejoin:bevel;stroke-miterlimit:11.3386;stroke-dasharray:3.4016,0.8504;enable-background:new    ;" width="34.1" height="92.8"/>
<rect id="rect846" x="15.1" y="22.2" class="st2" width="312.4" height="86.4"/>
<path id="path5600" inkscape:original-d="m 122.18164,42.075353 c 0.40966,0.137397 0.8192,0.274724 1.22863,0.411981 -0.17425,0.300422 -0.3486,0.600762 -0.52308,0.901038 -0.2576,0.04096 -0.51531,0.08185 -0.77313,0.122671 -0.52944,0.461454 -1.05897,0.922819 -1.58862,1.384124 -0.56022,1.680775 -1.12054,3.361412 -1.68098,5.042014 -1.04892,0.334165 -2.09792,0.668247 -3.14705,1.002268 -0.32503,0.222711 -0.65017,0.445341 -0.97543,0.667907 -1.70928,-0.08126 -3.41861,-0.162585 -5.12809,-0.243988 0.31431,-0.619267 0.62848,-1.238584 0.94254,-1.857981 0.52937,-0.552415 1.0586,-1.104877 1.58772,-1.65742 0.10795,-0.443222 0.21577,-0.886494 0.32349,-1.329845 -0.87967,0.07832 -1.75941,0.156575 -2.63929,0.234758 0.68601,-0.60362 1.37187,-1.207285 2.05764,-1.811032 0.33532,-0.377903 0.67052,-0.755861 1.00561,-1.133897 -0.59311,-0.252605 -1.18632,-0.505271 -1.77965,-0.758011 -0.55421,0.217191 -1.10852,0.434304 -1.66295,0.651352 -0.14797,0.276991 -0.26992,0.597144 -0.40504,0.89561 -0.17981,0.337152 -0.35972,0.67422 -0.53975,1.011225 -0.78851,0.203893 -1.57709,0.407709 -2.36581,0.611458 -0.9492,-0.219586 -1.89848,-0.439231 -2.84789,-0.658952 -1.10479,-0.561462 -2.20965,-1.122971 -3.314647,-1.684561 -0.32203,0.434223 -0.644157,0.888443 -0.966417,1.332559 -0.411077,0.225696 -0.822264,0.4799 -1.233571,0.719745 -0.0122,0.382114 -0.0245,0.818784 -0.037,1.228071 -0.626447,0.02839 -1.252994,0.0567 -1.879661,0.08495 -0.370987,-0.367318 -0.742074,-0.734692 -1.113284,-1.102143 -0.935374,0.01653 -1.870828,0.033 -2.806422,0.04939 -0.445177,0.250484 -0.890457,0.500888 -1.335854,0.751227 -0.564127,0.53799 -1.128344,1.075887 -1.692681,1.613726 -0.218397,0.447523 -0.436917,0.894957 -0.655534,1.342328 -0.27743,0.353346 -0.554957,0.706608 -0.832607,1.059805 -0.520277,7.2e-5 -1.040634,7.2e-5 -1.561131,0 -0.222747,-0.376724 -0.445617,-0.753506 -0.668594,-1.130367 0.179427,-0.947847 0.358747,-1.895728 0.537947,-2.843697 0.449617,-0.436164 0.899094,-0.872381 1.348471,-1.308676 0.519897,-0.393192 1.039664,-0.786438 1.559321,-1.179762 0.478897,-0.305982 0.957664,-0.612021 1.436321,-0.918136 -0.771374,0.231576 -1.542831,0.473567 -2.314425,0.710246 -0.582147,0.328466 -1.202534,0.672772 -1.803971,1.009053 -0.803364,0.532018 -1.606811,1.063946 -2.410395,1.595814 0.427537,-0.621532 0.854944,-1.243109 1.282241,-1.864767 0.412817,-0.353206 0.825507,-0.706468 1.238084,-1.059806 0.714397,-0.4586 1.428631,-0.917252 2.142778,-1.375982 1.089544,-0.730184 2.178928,-1.460408 3.268232,-2.190716 -1.120704,-0.746649 -2.241488,-1.493337 -3.362392,-2.240111 -0.827844,-0.103878 -1.655781,-0.207821 -2.483835,-0.311835 -0.483777,-0.113196 -0.967654,-0.226456 -1.451644,-0.339789 0.41117,-0.3694 0.822197,-0.738854 1.233124,-1.108386 1.2e-4,-0.195339 1.2e-4,-0.390741 0,-0.586216 -0.19857,-0.426486 -0.397257,-0.853022 -0.596057,-1.279637 -1.039614,-0.04706 -2.079288,-0.0942 -3.119102,-0.141398 -1.816348,0.151422 -3.632749,0.302767 -5.4493,0.454047 -0.705894,-0.24365 -1.411871,-0.487359 -2.117995,-0.731144 1.142561,-0.337102 2.284965,-0.67426 3.427269,-1.011496 0.792784,-0.450277 1.585421,-0.900606 2.377965,-1.351014 0.30423,-1.223322 0.608347,-2.446664 0.912337,-3.670101 -1.175514,-0.251339 -2.351108,-0.502738 -3.526832,-0.754212 -2.867941,0.604664 -5.735896,1.209234 -8.604022,1.813746 -1.842347,0.01264 -3.684732,0.02522 -5.527269,0.03772 0.196102,-0.684588 0.392087,-1.369218 0.587957,-2.053932 2.046229,-0.30761 4.092255,-0.615278 6.138209,-0.923021 1.403437,-0.316385 2.806704,-0.632828 4.209882,-0.949346 0.675198,-0.229175 1.350245,-0.458411 2.025182,-0.68772 1.845878,0.06023 3.691559,0.120389 5.537157,0.180479 0.28261,0.460639 0.565097,0.921191 0.847467,1.381682 0.480707,0.03001 0.961274,0.05996 1.441731,0.08983 0.0528,-0.584169 0.10555,-1.168385 0.15814,-1.752681 0.498727,-0.297297 0.997314,-0.594652 1.495801,-0.892082 0.420777,-0.03892 0.841424,-0.07791 1.261961,-0.116972 0.39,0.515372 0.779857,1.030654 1.169604,1.545877 0.366567,0.329461 0.732997,0.65884 1.099324,0.988156 -0.768827,0.300241 -1.537731,0.6004 -2.306778,0.900495 -0.528227,0.485428 -1.056554,0.970766 -1.585001,1.456045 -0.026,0.669529 -0.0521,1.338961 -0.0784,2.008337 0.161257,0.362663 0.322397,0.725242 0.483427,1.087759 0.713337,0.08827 1.426534,0.176478 2.139631,0.264612 0.848344,0.149974 1.696548,0.299873 2.544655,0.449705 1.443221,0.399031 2.886272,0.797976 4.329246,1.196861 0.101937,0.445983 0.203757,0.89188 0.305467,1.337715 0.381577,0.457021 0.763027,0.913954 1.144374,1.370826 1.223664,0.532742 2.447155,1.065393 3.670559,1.597985 1.676317,0.334438 3.352457,0.668792 5.028517,1.003083 -0.34771,-0.649486 -0.69553,-1.299017 -1.04346,-1.94863 -0.0301,-0.347596 -0.0603,-0.704657 -0.0906,-1.057091 0.95844,0.406539 1.91673,0.812994 2.87492,1.219386 1.00725,0.02757 2.01435,0.05507 3.02135,0.0825 0.0204,-0.267894 0.0407,-0.535848 0.0608,-0.803877 0.007,-0.40423 0.013,-0.808513 0.0194,-1.212874 0.83634,7.25e-4 1.67253,0.01491 2.50863,0.02226 0.74052,0.118582 1.4809,0.237089 2.22118,0.35553 0.53838,-0.633384 1.07661,-1.266812 1.61475,-1.900322 0.44511,0.245236 0.89009,0.490394 1.33496,0.735486 0.45172,0.486061 0.90331,0.972033 1.35479,1.457944 0.95288,0.733399 1.90561,1.466699 2.85825,2.199944 0.2775,0.408169 0.55488,0.816251 0.83215,1.224272 -0.0678,1.012762 -0.13565,2.025414 -0.20365,3.038017 z" inkscape:path-effect="#path-effect5602" class="st3" d="
	M252.8,78.3c0.6,0.2,1.7,0.6,2.1,1.2c0.3,0.6-0.2,1.5-0.8,2s-1.3,0.6-2.5,1.3c-1.1,0.7-2.6,2-4.2,5.1c-1.5,3-3.1,7.8-5.4,10.7
	c-2.3,2.9-5.3,3.8-7.2,4.6c-1.9,0.8-2.9,1.4-5.8,1.6c-2.9,0.2-7.7,0-9.7-1s-1.1-2.7,0.1-4.4c1.2-1.7,2.7-3.2,3.6-4.6
	c0.9-1.4,1.2-2.7,0.1-3.2c-1.1-0.5-3.6-0.3-3.9-1c-0.3-0.7,1.7-2.5,3.1-3.8c1.4-1.4,2.4-2.5,2-3.4s-2-1.6-3.7-1.7
	c-1.6-0.1-3.2,0.6-4.2,1.3c-1,0.7-1.4,1.6-1.8,2.5c-0.4,0.9-1,1.9-2.3,2.6c-1.4,0.8-3.6,1.3-6.1,1.3s-5.2-0.6-8.1-1.8
	c-2.9-1.1-6-2.7-8.1-2.9c-2-0.2-2.9,1.1-4,2.1c-1,1-2.2,1.7-2.8,2.5c-0.6,0.9-0.6,2.1-1.5,2.7s-2.7,0.7-4.1,0.2
	c-1.4-0.5-2.5-1.5-4.3-2c-1.9-0.5-4.5-0.5-6.5-0.1s-3.2,1.1-4.7,2.2c-1.4,1.1-3,2.6-4.1,4s-1.7,2.7-2.4,3.8s-1.5,2.1-2.6,2.6
	s-2.6,0.5-3.7,0c-1.1-0.5-1.7-1.6-1.7-3.5c-0.1-1.9,0.4-4.6,1.3-6.5c0.9-2,2.2-3.2,3.5-4.4c1.4-1.2,2.8-2.3,4.3-3.3
	c1.4-1,2.8-1.9,2.4-2c-0.4-0.1-2.6,0.6-4.5,1.4s-3.7,1.8-5.7,3s-4.3,2.7-4.8,2.6s0.7-1.9,1.9-3.3s2.4-2.4,4-3.5
	c1.6-1.2,3.6-2.5,6.2-4.1c2.6-1.7,5.6-3.8,5.6-5.8c0-2.1-3.2-4.2-6-5.4c-2.8-1.2-5.1-1.5-7-1.8s-3.2-0.6-3.3-1.3
	c-0.1-0.7,1.1-1.7,1.6-2.5c0.6-0.8,0.6-1.4,0.3-2.2c-0.3-0.9-0.8-2.1-2.6-2.8s-4.7-0.8-8.8-0.7c-4,0.1-9.2,0.6-12.8,0.4
	c-3.6-0.1-5.6-0.8-5-1.6s3.9-1.8,6.6-2.9c2.7-1.1,5-2.4,6.5-4.8c1.6-2.4,2.4-5.8,1.2-7.9c-1.2-2.1-4.6-2.8-10.3-2.3
	c-5.7,0.5-13.9,2.2-20.5,3.1c-6.7,0.9-11.9,0.9-14.2,0c-2.3-1-1.8-2.9,1.4-4.3c3.2-1.4,9-2.3,13.9-3.2s8.9-1.8,11.8-2.6
	c2.9-0.8,4.9-1.4,8.4-1.7c3.6-0.2,8.8-0.1,11.8,0.7c3,0.7,3.8,2,4.9,2.7c1.1,0.7,2.4,0.8,3.2,0s0.9-2.4,1.7-3.7
	c0.8-1.2,2.2-2.1,3.5-2.6s2.5-0.6,3.6,0.1s2.3,2.1,3.3,3.3c1.1,1.2,2.1,2.1,1.5,3c-0.6,0.9-2.8,1.7-4.6,2.9
	c-1.8,1.1-3.3,2.5-4.1,4.1s-0.9,3.5-0.7,5s0.6,2.5,1.9,3.1c1.2,0.6,3.3,0.9,5.5,1.2s4.6,0.8,7.9,1.5c3.2,0.8,7.3,1.9,9.5,3.1
	s2.5,2.5,3.2,3.7c0.7,1.3,1.8,2.6,4,4c2.3,1.4,5.7,2.9,9.9,4.1c4.1,1.2,8.9,2.2,10.7,1.7c1.9-0.4,0.9-2.3,0.4-3.7
	c-0.5-1.4-0.6-2.4,0.7-2.3s4,1.2,6.8,1.8s5.6,0.7,7.1,0.4s1.5-1.1,1.6-2.1c0-1,0.1-2.1,1.3-2.7c1.2-0.6,3.6-0.5,5.8-0.4
	c2.2,0.2,4.3,0.5,6.1-0.2s3.3-2.5,4.7-3.1s2.7,0.1,3.9,1.2c1.3,1,2.6,2.4,4.5,4.1c2,1.7,4.7,3.8,6.4,5.4c1.7,1.6,2.5,2.8,2.8,4.8
	s0.1,4.9,0,6.3C252.2,78.1,252.2,78.1,252.8,78.3L252.8,78.3z"/>
<radialGradient id="rect1227_00000021092527406939287880000009374410404925100444_" cx="-108.5211" cy="122.562" r="6.1696" gradientTransform="matrix(2.8336 -7.557655e-02 0.4026 15.0938 338.5605 -1664.2273)" gradientUnits="userSpaceOnUse">
	<stop  offset="0" style="stop-color:#A4B266"/>
	<stop  offset="1" style="stop-color:#A4B266;stop-opacity:0"/>
</radialGradient>
<rect id="rect1227" x="63.4" y="147.5" style="opacity:0.8;fill:url(#rect1227_00000021092527406939287880000009374410404925100444_);stroke:#000000;stroke-width:0.8593;stroke-linejoin:bevel;stroke-miterlimit:11.3386;enable-background:new    ;" width="34.1" height="92.8"/>
<radialGradient id="rect1227-6_00000058569189502061397210000006114653068280395677_" cx="-43.4606" cy="124.1225" r="6.1242" gradientTransform="matrix(2.8345 3.266495e-02 -0.2352 20.4055 392.6684 -2321.5625)" gradientUnits="userSpaceOnUse">
	<stop  offset="0" style="stop-color:#A4B266"/>
	<stop  offset="1" style="stop-color:#A4B266;stop-opacity:0"/>
</radialGradient>
<rect id="rect1227-6" x="223.3" y="143.1" style="opacity:0.8;fill:url(#rect1227-6_00000058569189502061397210000006114653068280395677_);stroke:#000000;stroke-width:1.0429;stroke-linejoin:bevel;stroke-miterlimit:11.3386;enable-background:new    ;" width="33.9" height="133.4"/>
<g id="g20975" transform="translate(0,-17.462502)">
	<rect id="rect13692-1" x="56.5" y="385.5" class="st6" width="48.5" height="12.7"/>
	<rect id="rect13692-7" x="108.3" y="385.5" class="st6" width="48.5" height="12.7"/>
</g>
<path id="path13453" inkscape:original-d="m 71.413812,144.99302 c -0.180386,-3.87677 -0.361009,-7.7532 -0.541952,-11.63111 0.922294,-6.58663 1.844024,-13.17139 2.765653,-19.75758 0.01462,-3.16214 0.02898,-6.32447 0.04308,-9.48711 -0.65268,-4.163443 -1.305608,-8.327042 -1.958827,-12.491079 -2.784051,-2.293268 -8.352785,-6.880462 -8.352785,-6.880462 0,0 -0.434146,9.110639 -0.651622,13.665697 -0.154773,4.186264 -0.309801,8.372014 -0.465103,12.557754 -2.370799,11.32619 -4.741767,22.65165 -7.113046,33.97706" inkscape:path-effect="#path-effect13455" sodipodi:nodetypes="ccccccccc" class="st7" d="
	M82.1,1155.9"/>
<circle id="path1623" class="st8" cx="159" cy="60.4" r="5"/>
<circle id="path1623-3" class="st8" cx="230.3" cy="72" r="5"/>
<path id="path3403" inkscape:original-d="M 87.818337,37.160366 C 80.15314,43.487099 72.487676,49.813569 64.821947,56.139775" inkscape:path-effect="#path-effect3405" sodipodi:nodetypes="cc" class="st9" d="
	M154.8,64.1C133.1,82,111.3,100,89.6,117.9"/>
<path id="path3407" inkscape:original-d="m 115.44717,42.13748 c 2.40774,4.571432 4.84614,9.201336 7.26882,13.801609" inkscape:path-effect="#path-effect3409" sodipodi:nodetypes="cc" class="st9" d="
	M233.1,78.3c6.8,13,13.7,26.1,20.6,39.1"/>
<text transform="matrix(1 0 0 1 4.5029 16)" class="st10 st11">Site:</text>
<text transform="matrix(1 0 0 1 47.8428 16)" class="st10 st11"> Nath Sagar</text>
<text transform="matrix(1 0 0 1 3.3926 134.4277)" class="st10 st11">Collection Unit 1</text>
<text transform="matrix(1 0 0 1 187.7637 134.1055)" class="st10 st11">Collection Unit 2</text>
<path id="path9674" inkscape:original-d="m 42.280962,99.257156 c 2.719869,2.7e-4 8.158814,0 8.158814,0 0,0 2.64e-4,-21.795017 0,-32.692947" inkscape:path-effect="#path-effect9676" sodipodi:nodetypes="ccc" class="st12" d="
	M25.7,240.2c7.7,0,15.4,0,23.1,0c0-30.9,0-61.8,0-92.7"/>
<path id="path9674-0" inkscape:original-d="m 137.80823,113.48005 c -2.71987,2.6e-4 -8.15882,0 -8.15882,0 0,0 2.6e-4,-32.254846 0,-48.382712" inkscape:path-effect="#path-effect9676-2" sodipodi:nodetypes="ccc" class="st12" d="
	M296.5,280.5c-7.7,0-15.4,0-23.1,0c0-45.7,0-91.4,0-137.1"/>
<path id="path10173" inkscape:original-d="m 42.280961,99.257156 c 0.715029,-1.744534 1.42979,-3.489334 2.144287,-5.234394 1.338733,-1.444054 2.677146,-2.888308 4.015322,-4.332849 0.04866,-2.720458 0.09706,-5.441078 0.145187,-8.162026 0.31592,-2.902701 0.631566,-5.805548 0.946952,-8.708718 0.302625,-2.084766 0.604975,-4.169709 0.907065,-6.254961" inkscape:path-effect="#path-effect10175" class="st13" d="
	M25.7,240.2c2-4.9,4.1-9.9,7-14.4s6.7-8.6,8.7-14.5s2.1-13.6,2.6-21.6s1.4-16.2,2.3-23.3c0.9-7.1,1.7-13,2.6-18.9"/>
<path id="path10542" inkscape:original-d="m 137.80823,113.48005 c -0.2352,-1.9306 -0.47067,-3.86146 -0.70641,-5.79259 -0.6032,-1.93653 -1.20664,-3.87325 -1.81036,-5.81028 -0.53061,-1.71253 -1.06146,-3.425241 -1.59258,-5.138259 -0.12816,-2.65098 -0.25658,-5.302127 -0.38527,-7.953572 0.12964,-2.454948 0.259,-4.910085 0.38811,-7.365525 -0.60821,-3.220253 -1.21665,-6.440637 -1.82537,-9.661352 -0.71473,-2.16567 -1.48436,-4.440491 -2.22694,-6.661134" inkscape:path-effect="#path-effect10544" class="st14" d="
	M296.5,280.5c-0.7-5.5-1.3-10.9-2.5-16.4s-2.9-11-4.5-16.1c-1.6-5.2-3.1-10-4-16.2s-1.3-13.7-1.3-20.9s0.4-14.2-0.3-22.2
	c-0.7-8-2.4-17.2-4.3-24.8s-4-14.1-6.2-20.4"/>
<text transform="matrix(1 0 0 1 255.1748 298.2061)" class="st15 st16">Chronology</text>
<text transform="matrix(1 0 0 1 1.9092 257.2158)" class="st15 st16">Chronology</text>
<rect id="rect13692" x="58.4" y="191.6" class="st6" width="48.5" height="12.7"/>
<rect id="rect13692-19" x="215.4" y="199.1" class="st6" width="48.5" height="12.7"/>
<radialGradient id="rect1227-6-2_00000101073146329194833170000018394846224963406781_" cx="-36.4055" cy="124.1123" r="6.1238" gradientTransform="matrix(2.8345 3.266495e-02 -0.2352 20.4055 398.8045 -2141.083)" gradientUnits="userSpaceOnUse">
	<stop  offset="0" style="stop-color:#A4B266"/>
	<stop  offset="1" style="stop-color:#A4B266;stop-opacity:0"/>
</radialGradient>
<rect id="rect1227-6-2" x="249.4" y="323.6" style="opacity:0.8;fill:url(#rect1227-6-2_00000101073146329194833170000018394846224963406781_);stroke:#000000;stroke-width:0.8504;stroke-linejoin:bevel;stroke-miterlimit:11.3386;stroke-dasharray:3.4016,0.8504;enable-background:new    ;" width="33.9" height="133.4"/>
<rect id="rect13692-19-6" x="241.2" y="383.4" class="st6" width="48.5" height="12.7"/>
<text transform="matrix(1 0 0 1 102.2969 186.5576)" class="st15 st18">Analysis</text>
<text transform="matrix(1 0 0 1 115.9141 204.54)" class="st15 st18">Unit</text>
<path id="path18162" inkscape:original-d="m 109.21065,89.259246 c -1.82349,4.620325 -3.6472,9.240273 -5.47126,13.860164 0.0418,7.88441 0.0833,15.76823 0.1246,23.65196 4.092,8.19696 8.18374,16.39365 12.27521,24.59009" inkscape:path-effect="#path-effect18164" sodipodi:nodetypes="cccc" class="st7" d="
	M572.2,1104.4"/>
<circle class="st19" cx="75.7" cy="335.8" r="5"/>
<circle class="st19" cx="75.7" cy="348.7" r="5"/>
<circle class="st19" cx="75.7" cy="361.6" r="5"/>
<circle class="st19" cx="75.7" cy="374.5" r="5"/>
<circle class="st19" cx="75.7" cy="387.5" r="5"/>
<circle class="st19" cx="75.7" cy="400.4" r="5"/>
<circle class="st19" cx="75.7" cy="413.3" r="5"/>
<circle class="st19" cx="139" cy="335.6" r="5"/>
<circle class="st19" cx="139" cy="348.5" r="5"/>
<circle class="st19" cx="139" cy="361.4" r="5"/>
<circle class="st19" cx="139" cy="374.4" r="5"/>
<circle class="st19" cx="139" cy="387.3" r="5"/>
<circle class="st19" cx="139" cy="400.2" r="5"/>
<circle class="st19" cx="139" cy="413.1" r="5"/>
<line class="st20" x1="51.7" y1="335.6" x2="51.7" y2="413.3"/>
<line class="st20" x1="51.7" y1="335.6" x2="63.3" y2="335.6"/>
<line class="st20" x1="51.7" y1="413.1" x2="63.3" y2="413.1"/>
<text transform="matrix(1 0 0 1 6.0061 371.754)" class="st15 st18">Pollen</text>
<text transform="matrix(1 0 0 1 1.3401 386.7365)" class="st15 st18">Dataset</text>
<line class="st20" x1="161.2" y1="335.5" x2="161.2" y2="413.2"/>
<line class="st20" x1="150.2" y1="335.5" x2="161.7" y2="335.5"/>
<line class="st20" x1="150.2" y1="413" x2="161.7" y2="413"/>
<text transform="matrix(0.9999 -1.693341e-02 1.693341e-02 0.9999 163.1676 371.0516)" class="st15 st21">Charcoal</text>
<text transform="matrix(0.9999 -1.693341e-02 1.693341e-02 0.9999 165.2504 385.8993)" class="st15 st21">Dataset</text>
<circle class="st19" cx="266.4" cy="333.2" r="5"/>
<circle class="st19" cx="266.4" cy="347.4" r="5"/>
<circle class="st19" cx="266.4" cy="361.7" r="5"/>
<circle class="st19" cx="266.4" cy="375.9" r="5"/>
<circle class="st19" cx="266.4" cy="390.2" r="5"/>
<circle class="st19" cx="266.4" cy="404.4" r="5"/>
<circle class="st19" cx="266.4" cy="418.7" r="5"/>
<circle class="st19" cx="266.4" cy="432.9" r="5"/>
<circle class="st19" cx="266.4" cy="447.2" r="5"/>
<line class="st20" x1="298.6" y1="331.8" x2="298.6" y2="449.8"/>
<line class="st20" x1="287.6" y1="331.8" x2="299.1" y2="331.8"/>
<line class="st20" x1="287.6" y1="449.5" x2="299.1" y2="449.5"/>
<text transform="matrix(1 0 0 1 301.643 390.4191)" class="st15 st18">Diatom</text>
<text transform="matrix(1 0 0 1 299.0253 405.4015)" class="st15 st18">Dataset</text>
<g>
	<g>
		<path class="st20" d="M215.4,211.8c-6.7,7.1-16.8,19.6-16.3,52.1c0.7,43,19.2,70,63.3,121.6"/>
		<g>
			<path class="st22" d="M261.6,384.5l1-3h0.1l1.5,4.5c0.7,1.4,1.5,2.8,2.2,4.2c-1.2-1-2.5-1.9-3.7-2.9l-4.2-2.2V385L261.6,384.5z"
				/>
		</g>
	</g>
</g>
<rect id="rect21007-8" x="186.4" y="291.5" class="st23" width="58.2" height="36.2"/>
<text transform="matrix(1 0 0 1 192.2673 306.0842)" class="st15 st18">Diatom</text>
<text transform="matrix(1 0 0 1 187.6013 324.0666)" class="st15 st18">Samples</text>
<g>
	<g>
		<path class="st20" d="M69.4,197.4c5.1,8.1,19.3,46.4,20.2,79.1c0.8,28.6,9.3,49.8-11.3,94.5"/>
		<g>
			<path class="st22" d="M78.9,369.8l3.1-0.3v0.1l-3.4,3.3c-1,1.2-1.9,2.5-2.9,3.7c0.3-1.5,0.7-3.1,1-4.6l0.3-4.7l0.1-0.1
				L78.9,369.8z"/>
		</g>
	</g>
</g>
<g>
	<g>
		<path class="st20" d="M89.6,197.1c5.6,6.4,15.6,11.8,27.7,40.3c10.2,24-3,85.9,18.5,134.7"/>
		<g>
			<path class="st22" d="M135.2,370.8l1.8-2.6l0.1,0.1l0.3,4.7c0.3,1.5,0.7,3.1,1,4.6c-1-1.3-1.9-2.5-2.9-3.8l-3.4-3.3v-0.1
				L135.2,370.8z"/>
		</g>
	</g>
</g>
<g id="g23482" transform="translate(-14.837502,-4.3264913)">
	<rect id="rect21007" x="113.1" y="281.3" class="st23" width="59.2" height="36.2"/>
</g>
<g id="g23474" transform="translate(-5.1528711,-1.0583333)">
	<rect id="rect20623" x="41.1" y="278.6" class="st23" width="58.7" height="35.3"/>
	<text transform="matrix(1 0 0 1 51.1794 292.4487)" class="st15 st18">Pollen</text>
	<text transform="matrix(1 0 0 1 43.5133 310.4312)" class="st15 st18">Samples</text>
</g>
<text transform="matrix(1 0 0 1 99.1395 291.5734)" class="st15 st18">Charcoal</text>
<text transform="matrix(1 0 0 1 99.4735 309.5558)" class="st15 st18">Samples</text>
</svg>
